name analog
datacolumns 19
datarows 51
range 0.2205 0.2455
endheader
time	ground_force_vx	ground_force_vy	ground_force_vz	ground_force_px	ground_force_py	ground_force_pz	l_ground_force_vx	l_ground_force_vy	l_ground_force_vz	l_ground_force_px	l_ground_force_py	l_ground_force_pz	ground_torque_x	ground_torque_y	ground_torque_z	l_ground_torque_x	l_ground_torque_y	l_ground_torque_z
0.2205	-0.0	-0.0	-0.0	-4.189445018768311	60.7800407409668	-382.82427978515625	8.16783332824707	-64.03535461425781	-405.3692626953125	-0.0	-0.0	-0.0	-0.0	-0.0	-0.0	102988.5390625	-40803.0234375	-722.0339965820312
0.221	-0.0	-0.0	-0.0	-4.0204033851623535	60.423301696777344	-382.8893127441406	8.34547233581543	-63.8521614074707	-403.9640808105469	-0.0	-0.0	-0.0	-0.0	-0.0	-0.0	102714.2265625	-40792.0078125	-781.9193115234375
0.2215	-0.0	-0.0	-0.0	-4.1892266273498535	59.899295806884766	-384.9612731933594	8.780076026916504	-63.15114974975586	-402.9254760742188	-0.0	-0.0	-0.0	-0.0	-0.0	-0.0	102274.4375	-40076.04296875	-841.155517578125
0.222	-0.0	-0.0	-0.0	-4.28084659576416	59.726165771484375	-385.3143615722656	8.431068420410156	-63.06403732299805	-400.4443664550781	-0.0	-0.0	-0.0	-0.0	-0.0	-0.0	101679.8125	-39688.81640625	-988.145263671875
0.2225	-0.0	-0.0	-0.0	-4.2821044921875	60.173370361328125	-388.8511352539063	8.07876968383789	-63.06168365478516	-399.0659484863281	-0.0	-0.0	-0.0	-0.0	-0.0	-0.0	101280.015625	-39130.16796875	-1135.8768310546875
0.223	-0.0	-0.0	-0.0	-4.810712814331055	60.1670150756836	-387.8126525878906	8.60494613647461	-62.70964431762695	-394.9102478027344	-0.0	-0.0	-0.0	-0.0	-0.0	-0.0	100792.7265625	-38984.28125	-1077.29443359375
0.2235	-0.0	-0.0	-0.0	-4.375413417816162	60.43587112426758	-388.5411987304688	9.043344497680664	-62.87477493286133	-395.2294921875	-0.0	-0.0	-0.0	-0.0	-0.0	-0.0	100537.9765625	-38377.484375	-1252.8421630859375
0.224	-0.0	-0.0	-0.0	-4.643154144287109	60.52094650268555	-390.9591064453125	8.608922004699707	-61.99654769897461	-392.8112487792969	-0.0	-0.0	-0.0	-0.0	-0.0	-0.0	99628.46875	-38396.9765625	-1193.970458984375
0.2245	-0.0	-0.0	-0.0	-4.8173675537109375	61.846435546875	-392.3886413574219	9.038969993591309	-61.48138046264648	-391.0605163574219	-0.0	-0.0	-0.0	-0.0	-0.0	-0.0	99539.7578125	-37854.48046875	-1255.9879150390625
0.225	-0.0	-0.0	-0.0	-5.08647346496582	62.034759521484375	-396.9216918945313	8.603549003601074	-61.38079452514648	-390.70068359375	-0.0	-0.0	-0.0	-0.0	-0.0	-0.0	99460.7734375	-37526.9140625	-1553.403076171875
0.2255	-0.0	-0.0	-0.0	-5.70947265625	62.73874282836914	-395.573486328125	8.5133695602417	-61.46761322021485	-389.332275390625	-0.0	-0.0	-0.0	-0.0	-0.0	-0.0	98941.75	-37186.953125	-1671.2235107421875
0.226	-0.0	-0.0	-0.0	-6.155525207519531	62.74470901489258	-399.0871887207031	7.720776557922363	-61.112754821777344	-387.9479370117188	-0.0	-0.0	-0.0	-0.0	-0.0	-0.0	98983.9453125	-36997.55078125	-1906.56494140625
0.2265	-0.0	-0.0	-0.0	-6.15869140625	63.27626037597656	-398.7527160644531	7.457724094390869	-61.38207626342773	-389.6472778320313	-0.0	-0.0	-0.0	-0.0	-0.0	-0.0	98803.125	-36892.40234375	-2055.09326171875
0.227	-0.0	-0.0	-0.0	-6.152286052703857	63.460845947265625	-401.20599365234375	7.009692668914795	-61.998756408691406	-390.00238037109375	-0.0	-0.0	-0.0	-0.0	-0.0	-0.0	98572.296875	-36515.91796875	-2290.771728515625
0.2275	-0.0	-0.0	-0.0	-6.333946228027344	63.368412017822266	-401.9056396484375	6.656463146209717	-61.6453971862793	-389.3164978027344	-0.0	-0.0	-0.0	-0.0	-0.0	-0.0	98749.140625	-36587.71484375	-2296.109619140625
0.228	-0.0	-0.0	-0.0	-5.536128520965576	63.11446762084961	-404.6972961425781	6.301692485809326	-61.56343078613281	-388.6057739257813	-0.0	-0.0	-0.0	-0.0	-0.0	-0.0	98416.3984375	-36197.11328125	-2501.31640625
0.2285	-0.0	-0.0	-0.0	-4.642402172088623	63.28948974609375	-402.28564453125	6.0323333740234375	-61.20857238769531	-386.8534851074219	-0.0	-0.0	-0.0	-0.0	-0.0	-0.0	97869.875	-35756.7109375	-2502.48486328125
0.229	-0.0	-0.0	-0.0	-4.731685638427734	63.53763961791992	-401.2333679199219	5.684229850769043	-60.84861373901367	-386.18157958984375	-0.0	-0.0	-0.0	-0.0	-0.0	-0.0	97448.4453125	-35591.78125	-2650.385498046875
0.2295	-0.0	-0.0	-0.0	-4.55873966217041	63.19165802001953	-401.2337951660156	6.027170181274414	-60.06902694702149	-383.35491943359375	-0.0	-0.0	-0.0	-0.0	-0.0	-0.0	97201.40625	-35003.01171875	-2826.752685546875
0.23	-0.0	-0.0	-0.0	-5.073981285095215	63.02437210083008	-401.5656127929688	6.2896833419799805	-60.05874633789063	-381.30120849609375	-0.0	-0.0	-0.0	-0.0	-0.0	-0.0	96675.046875	-34865.89453125	-2885.84423828125
0.2305	-0.0	-0.0	-0.0	-4.8023858070373535	63.45523452758789	-401.5730285644531	6.117458820343018	-59.97221374511719	-379.5701599121094	-0.0	-0.0	-0.0	-0.0	-0.0	-0.0	96469.625	-34471.00390625	-2887.09521484375
0.231	-0.0	-0.0	-0.0	-4.2821044921875	63.27495574951172	-400.8441467285156	6.296637058258057	-59.70181655883789	-379.17864990234375	-0.0	-0.0	-0.0	-0.0	-0.0	-0.0	95668.953125	-34111.015625	-2949.872314453125
0.2315	-0.0	-0.0	-0.0	-4.018362045288086	63.193458557128906	-402.9552307128906	6.300329685211182	-59.26385498046875	-376.3781127929688	-0.0	-0.0	-0.0	-0.0	-0.0	-0.0	95052.8203125	-33992.75390625	-2949.18212890625
0.232	-0.0	-0.0	-0.0	-3.744860649108887	63.29248046875	-403.6454772949219	6.475887298583984	-59.261962890625	-373.6296081542969	-0.0	-0.0	-0.0	-0.0	-0.0	-0.0	94261.546875	-33522.08203125	-3152.29345703125
0.2325	-0.0	-0.0	-0.0	-2.773595094680786	63.64313888549805	-402.986328125	6.211691379547119	-59.00852584838867	-374.2828979492188	-0.0	-0.0	-0.0	-0.0	-0.0	-0.0	94241.0078125	-33239.359375	-3210.401611328125
0.233	-0.0	-0.0	-0.0	-3.022892951965332	63.45879364013672	-406.4450988769531	5.870686054229736	-59.43068313598633	-371.148193359375	-0.0	-0.0	-0.0	-0.0	-0.0	-0.0	93992.265625	-32683.689453125	-3186.291259765625
0.2335	-0.0	-0.0	-0.0	-1.9626312255859373	63.45875930786133	-404.037841796875	6.471871376037598	-58.64959716796875	-369.783203125	-0.0	-0.0	-0.0	-0.0	-0.0	-0.0	93616.4921875	-32411.568359375	-3360.98779296875
0.234	-0.0	-0.0	-0.0	-1.956254005432129	63.45447540283203	-405.0553283691406	6.387176513671875	-58.90242767333984	-369.0452270507813	-0.0	-0.0	-0.0	-0.0	-0.0	-0.0	92842.2578125	-31726.34375	-3248.583984375
0.23450000000000001	-0.0	-0.0	-0.0	-1.8626139163970947	63.117279052734375	-404.7185363769531	6.038572311401367	-59.173458099365234	-369.0205383300781	-0.0	-0.0	-0.0	-0.0	-0.0	-0.0	92459.6015625	-31504.82421875	-3422.099853515625
0.23500000000000001	-0.0	-0.0	-0.0	-1.877816200256348	63.36074066162109	-405.76898193359375	6.0259857177734375	-58.74235153198242	-368.0224609375	-0.0	-0.0	-0.0	-0.0	-0.0	-0.0	92362.734375	-30986.3125	-3536.410400390625
0.23550000000000001	-0.0	-0.0	-0.0	-1.967099666595459	62.84809875488281	-403.0402526855469	5.757592678070068	-59.429786682128906	-367.622802734375	-0.0	-0.0	-0.0	-0.0	-0.0	-0.0	92144.2890625	-30656.455078125	-3656.798828125
0.23600000000000002	-0.0	-0.0	-0.0	-1.6995409727096558	62.84147262573242	-404.74420166015625	5.3226470947265625	-59.7894287109375	-366.27728271484375	-0.0	-0.0	-0.0	-0.0	-0.0	-0.0	91900.8046875	-30730.484375	-3749.8017578125
0.23650000000000002	-0.0	-0.0	-0.0	-1.6973059177398682	62.57415008544922	-401.6021423339844	4.797053337097168	-60.14928436279297	-366.9583740234375	-0.0	-0.0	-0.0	-0.0	-0.0	-0.0	91860.1953125	-30298.30078125	-3811.093994140625
0.23700000000000002	-0.0	-0.0	-0.0	-1.434396266937256	62.653995513916016	-402.6622314453125	4.355868339538574	-60.58192825317383	-366.9494934082031	-0.0	-0.0	-0.0	-0.0	-0.0	-0.0	91687.875	-30037.763671875	-3899.034912109375
0.23750000000000002	-0.0	-0.0	-0.0	-1.5118204355239868	63.00569152832031	-403.6941223144531	4.433243274688721	-60.85593032836914	-368.713134765625	-0.0	-0.0	-0.0	-0.0	-0.0	-0.0	91897.3671875	-30311.951171875	-4046.6142578125
0.23800000000000002	-0.0	-0.0	-0.0	-1.6877555847167969	62.405757904052734	-401.9570007324219	4.260449409484863	-61.37893295288086	-367.65667724609375	-0.0	-0.0	-0.0	-0.0	-0.0	-0.0	92061.1171875	-29862.41796875	-4162.4072265625
0.23850000000000002	-0.0	-0.0	-0.0	-1.0778794288635254	62.47061920166016	-402.6251220703125	4.0854315757751465	-61.47660827636719	-369.3930969238281	-0.0	-0.0	-0.0	-0.0	-0.0	-0.0	92198.1640625	-29479.97265625	-4254.6669921875
0.23900000000000002	-0.0	-0.0	-0.0	-1.1671993732452393	63.091896057128906	-406.0978393554688	4.346828460693359	-61.47428512573242	-368.73248291015625	-0.0	-0.0	-0.0	-0.0	-0.0	-0.0	91938.96875	-29736.29296875	-4137.43212890625
0.23950000000000002	-0.0	-0.0	-0.0	-1.4298909902572632	62.58466339111328	-406.8033447265625	4.169406890869141	-61.648536682128906	-368.7424926757813	-0.0	-0.0	-0.0	-0.0	-0.0	-0.0	92400.0234375	-29117.33203125	-4285.13037109375
0.24	-0.0	-0.0	-0.0	-1.5114601850509644	63.1806755065918	-407.2164916992188	4.265543460845947	-61.56514739990234	-369.7418518066406	-0.0	-0.0	-0.0	-0.0	-0.0	-0.0	92133.9296875	-29106.98828125	-4344.38134765625
0.2405	-0.0	-0.0	-0.0	-1.7919971942901611	63.11469650268555	-408.6497497558594	4.088230609893799	-61.908504486083984	-369.4122924804688	-0.0	-0.0	-0.0	-0.0	-0.0	-0.0	91701.828125	-28835.923828125	-4549.73583984375
0.241	-0.0	-0.0	-0.0	-2.1357898712158203	64.15548706054688	-410.7691345214844	4.438086032867432	-61.22721862792969	-367.3375549316406	-0.0	-0.0	-0.0	-0.0	-0.0	-0.0	91708.0546875	-28747.40234375	-4464.55615234375
0.2415	-0.0	-0.0	-0.0	-2.3061349391937256	64.1658935546875	-412.1610107421875	4.085862159729004	-61.39128875732422	-366.6600341796875	-0.0	-0.0	-0.0	-0.0	-0.0	-0.0	91196.1171875	-28364.9296875	-4753.75146484375
0.242	-0.0	-0.0	-0.0	-2.0599539279937744	64.43858337402344	-413.9054565429688	4.245020866394043	-61.13164520263672	-365.561767578125	-0.0	-0.0	-0.0	-0.0	-0.0	-0.0	90588.8046875	-27896.25390625	-4697.6748046875
0.2425	-0.0	-0.0	-0.0	-2.4032044410705566	64.17388916015625	-416.0025634765625	4.432884693145752	-61.28996276855469	-365.1916809082031	-0.0	-0.0	-0.0	-0.0	-0.0	-0.0	90459.390625	-27766.2734375	-4701.99609375
0.243	-0.0	-0.0	-0.0	-2.400355577468872	64.35215759277344	-415.3945617675781	4.357592105865479	-61.03832626342773	-362.7791442871094	-0.0	-0.0	-0.0	-0.0	-0.0	-0.0	90185.671875	-27367.46484375	-4615.72998046875
0.2435	-0.0	-0.0	-0.0	-2.4866442680358887	63.82860565185547	-414.0382385253906	4.352282524108887	-60.94196319580078	-362.43011474609375	-0.0	-0.0	-0.0	-0.0	-0.0	-0.0	89790.1328125	-27302.666015625	-4755.89404296875
0.244	-0.0	-0.0	-0.0	-1.5308234691619873	63.644798278808594	-415.6702575683594	4.152826309204102	-60.42578887939453	-361.3501892089844	-0.0	-0.0	-0.0	-0.0	-0.0	-0.0	89882.7109375	-26903.185546875	-4817.96875
0.2445	-0.0	-0.0	-0.0	-1.6086736917495728	63.28546905517578	-415.00927734375	3.210381031036377	-61.45796203613281	-361.3388977050781	-0.0	-0.0	-0.0	-0.0	-0.0	-0.0	89690.28125	-26786.291015625	-5257.31103515625
0.245	-0.0	-0.0	-0.0	-1.850052833557129	63.20513153076172	-416.069091796875	2.581117868423462	-61.55175018310547	-361.4165954589844	-0.0	-0.0	-0.0	-0.0	-0.0	-0.0	90070.71875	-26699.21875	-5349.53369140625
0.2455	-0.0	-0.0	-0.0	-2.045926809310913	63.029972076416016	-416.3289184570313	1.877282738685608	-61.819461822509766	-363.1515808105469	-0.0	-0.0	-0.0	-0.0	-0.0	-0.0	90099.5	-26394.3125	-5590.24609375
